<?xml version="1.0" encoding="utf-8"?>
<!-- Generator: Adobe Illustrator 21.1.0, SVG Export Plug-In . SVG Version: 6.00 Build 0)  -->
<svg version="1.1" xmlns="http://www.w3.org/2000/svg" xmlns:xlink="http://www.w3.org/1999/xlink" x="0px" y="0px"
	 viewBox="0 0 792 612" style="enable-background:new 0 0 792 612;" xml:space="preserve">
<style type="text/css">
	.st0{fill:#16A3CE;}
	.st1{opacity:0.24;fill:#F4E4EB;stroke:#D6CECE;stroke-miterlimit:10;}
	.st2{fill:none;}
	.st3{font-family:'MVBoli';}
	.st4{font-size:24px;}
</style>
<g id="Layer_1">
	<g>
		<polygon class="st0" points="792,612 0,612 0,126.9 0,0 792,0 		"/>
		<path d="M792.4,612.4L0,612.5l-0.5,0l0-0.5l-0.6-306l-0.1-153l0-76.5C-1.2,63.8-1.1,51-1,38.3C-0.9,25.5-0.8,12.8-0.5,0l0-0.5H0
			h792h0.5l0,0.5L792.4,612.4z M791.6,611.6L791.5,0l0.5,0.5H0L0.5,0C0.8,12.8,0.9,25.5,1,38.3C1.1,51,1.2,63.8,1.2,76.5l0,76.5
			L1.1,306L0.5,612L0,611.5L791.6,611.6z"/>
	</g>
	<path class="st1" d="M0,69.5c0,137.3,354.2,248.3,792,248.3V612H9.3L0,69.5z"/>
	<path class="st1" d="M-3.4,192.7C-3.4,298,352.4,383.1,792,383.1v225.5H5.9L-3.4,192.7z"/>
</g>
<g id="Layer_2">
	<g>
		<g>
			<path d="M610.7,157.3c3.2,0,3.2-5,0-5C607.5,152.3,607.5,157.3,610.7,157.3L610.7,157.3z"/>
		</g>
	</g>
	<g>
		<g>
			<path d="M620.5,87.6c16.5,1.1,33.2,3.5,49.1,8.1c8.1,2.4,13.2,7.6,11.6,16.4c-1.4,7.6-7,12.7-13.6,16.1
				c-6.8,3.5-14.3,5.4-21.6,7.6c-3.9,1.2-7.9,2.4-11.8,3.6c-2.4,0.8-4.9,1.3-6.4,3.6c-3,4.8,1.4,11.8,2.7,16.5
				c2.3,8.1,3.5,16.4,3.6,24.9c0,3.2,5,3.2,5,0c-0.1-8.6-1.2-17.1-3.5-25.3c-0.6-2.3-1.4-4.6-2.2-6.8c-0.4-1.1-1.5-3.2-1.5-4.4
				c0.1-4.4,11.1-5.9,14.4-6.9c13-4,30.1-7.5,37.1-20.7c5.9-11,2.7-23.9-9.4-28.4c-16.7-6.2-36-8.1-53.7-9.3
				C617.3,82.4,617.3,87.4,620.5,87.6L620.5,87.6z"/>
		</g>
	</g>
	<g>
		<g>
			<path d="M638.7,206.3c3.2,0,3.2-5,0-5C635.5,201.3,635.5,206.3,638.7,206.3L638.7,206.3z"/>
		</g>
	</g>
	<rect x="653.7" y="54.8" class="st2" width="102" height="25"/>
	<text transform="matrix(1 0 0 1 653.6945 73.2318)" class="st3 st4">iner</text>
	<rect x="684.1" y="119.7" class="st2" width="122" height="30"/>
	<text transform="matrix(1 0 0 1 684.0792 138.1341)" class="st3 st4">ecider</text>
	<g>
		<g>
			<path d="M590.1,22.9c16.5,1.1,33.2,3.5,49.1,8.1c8.1,2.4,13.2,7.6,11.6,16.4c-1.4,7.6-7,12.7-13.6,16.1
				c-6.8,3.5-14.3,5.4-21.6,7.6c-3.9,1.2-7.9,2.4-11.8,3.6c-2.4,0.8-4.9,1.3-6.4,3.6c-3,4.8,1.4,11.8,2.7,16.5
				c2.3,8.1,3.5,16.4,3.6,24.9c0,3.2,5,3.2,5,0c-0.1-8.6-1.2-17.1-3.5-25.3c-0.6-2.3-1.4-4.6-2.2-6.8c-0.4-1.1-1.5-3.2-1.5-4.4
				c0.1-4.4,11.1-5.9,14.4-6.9c13-4,30.1-7.5,37.1-20.7c5.9-11,2.7-23.9-9.4-28.4c-16.7-6.2-36-8.1-53.7-9.3
				C586.9,17.7,586.9,22.7,590.1,22.9L590.1,22.9z"/>
		</g>
	</g>
</g>
</svg>
